<?xml version="1.0" encoding="utf-8"?>
<!-- Generator: Adobe Illustrator 16.0.0, SVG Export Plug-In . SVG Version: 6.00 Build 0)  -->
<!DOCTYPE svg PUBLIC "-//W3C//DTD SVG 1.1//EN" "http://www.w3.org/Graphics/SVG/1.1/DTD/svg11.dtd">
<svg version="1.1" id="Layer_1" xmlns="http://www.w3.org/2000/svg" xmlns:xlink="http://www.w3.org/1999/xlink" x="0px" y="0px"
	 width="1450px" height="562.344px" viewBox="0 0 1450 562.344" enable-background="new 0 0 1450 562.344" xml:space="preserve">
<g>
	<path fill="#FFFFFF" d="M140.293,551.642c-9.554,4.242-27.608,7.794-48.136,7.794c-55.93,0-91.68-33.979-91.68-88.498
		c0-50.628,34.691-92.035,99.113-92.035c14.159,0,29.729,2.472,41.057,6.729l-8.495,39.997c-6.368-2.841-15.927-5.318-30.086-5.318
		c-28.316,0-46.726,20.178-46.372,48.51c0,31.84,21.242,48.481,47.437,48.481c12.739,0,22.654-2.118,30.793-5.316L140.293,551.642z"
		/>
	<path fill="#FFFFFF" d="M170.02,439.788c0-25.485-0.705-42.127-1.415-56.995h46.373l1.766,31.869h1.415
		c8.849-25.135,30.092-35.76,46.728-35.76c4.953,0,7.431,0,11.326,0.708v50.611c-3.896-0.697-8.494-1.411-14.513-1.411
		c-19.823,0-33.272,10.617-36.813,27.259c-0.709,3.537-1.063,7.794-1.063,12.03v87.784H170.02V439.788z"/>
	<path fill="#FFFFFF" d="M343.104,486.52c1.769,22.288,23.713,32.908,48.849,32.908c18.405,0,33.272-2.473,47.786-7.083
		l7.077,36.459c-17.699,7.08-39.29,10.632-62.654,10.632c-58.756,0-92.384-33.979-92.384-88.145
		c0-43.899,27.256-92.389,87.429-92.389c55.927,0,77.168,43.539,77.168,86.365c0,9.201-1.064,17.354-1.774,21.252H343.104z
		 M406.461,449.7c0-13.109-5.663-35.038-30.438-35.038c-22.655,0-31.859,20.523-33.274,35.038H406.461z"/>
	<path fill="#FFFFFF" d="M586.985,555.884l-3.187-17.346h-1.063c-11.327,13.803-29.027,21.243-49.554,21.243
		c-35.045,0-55.931-25.48-55.931-53.098c0-44.959,40.354-66.542,101.588-66.196v-2.478c0-9.199-4.953-22.288-31.498-22.288
		c-17.699,0-36.462,6.009-47.791,13.089l-9.908-34.687c12.036-6.734,35.749-15.222,67.252-15.222
		c57.699,0,76.103,33.981,76.103,74.688v60.173c0,16.641,0.709,32.562,2.478,42.12H586.985z M580.613,474.123
		c-28.318-0.354-50.262,6.375-50.262,27.259c0,13.801,9.198,20.523,21.234,20.523c13.45,0,24.428-8.847,27.964-19.824
		c0.709-2.826,1.063-6.015,1.063-9.201V474.123z"/>
	<path fill="#FFFFFF" d="M732.813,333.247v49.546h38.586v39.648h-38.586v62.659c0,20.878,4.956,30.436,21.234,30.436
		c6.732,0,12.039-0.714,15.934-1.413l0.348,40.696c-7.071,2.838-19.818,4.616-35.041,4.616c-17.337,0-31.85-6.021-40.35-14.877
		c-9.912-10.258-14.864-26.898-14.864-51.333v-70.784h-23.009v-39.648h23.009v-37.516L732.813,333.247z"/>
	<path fill="#FFFFFF" d="M858.111,334.651c0,14.874-11.328,26.913-29.028,26.913c-16.979,0-28.307-12.039-27.958-26.913
		c-0.349-15.562,10.979-27.253,28.317-27.253C846.783,307.398,857.76,319.09,858.111,334.651z M802.544,555.884V382.793h53.797
		v173.091H802.544z"/>
	<path fill="#FFFFFF" d="M939.515,382.793l23.367,80.351c4.242,14.522,7.429,28.326,9.904,42.135h1.07
		c2.826-14.168,5.667-27.272,9.549-42.135l22.306-80.351h56.635L997.92,555.884h-53.797l-63.011-173.091H939.515z"/>
	<path fill="#FFFFFF" d="M1123.215,486.52c1.767,22.288,23.716,32.908,48.844,32.908c18.411,0,33.271-2.473,47.788-7.083
		l7.08,36.459c-17.7,7.08-39.298,10.632-62.647,10.632c-58.765,0-92.396-33.979-92.396-88.145c0-43.899,27.259-92.389,87.439-92.389
		c55.927,0,77.161,43.539,77.161,86.365c0,9.201-1.059,17.354-1.767,21.252H1123.215z M1186.573,449.7
		c0-13.109-5.664-35.038-30.434-35.038c-22.656,0-31.865,20.523-33.285,35.038H1186.573z"/>
</g>
<g>
	<path fill="#FFFFFF" d="M70.562,259.982c-28.858,0-55.917-7.689-68.847-14.833L0,244.199l12.213-49.646l2.88,1.476
		c17.832,9.127,39.76,14.578,58.657,14.578c22.442,0,35.314-8.479,35.314-23.265c0-13.094-9.666-20.975-38.301-31.23
		C26.19,140.589,3.58,116.077,3.58,83.259c0-44.507,37.302-74.41,92.823-74.41c23.03,0,43.868,4.127,61.932,12.264l2.002,0.903
		l-13.433,48.598l-2.763-1.327c-15.284-7.351-31.703-11.074-48.801-11.074c-19.514,0-32.125,8.027-32.125,20.453
		c0,12.896,10.636,19.109,42.593,31.223c43.381,16.052,63.596,39.423,63.596,73.555c0,21.368-8.697,40.525-24.485,53.939
		C127.517,252.167,101.803,259.982,70.562,259.982z M5.92,241.577c12.96,6.562,37.932,13.28,64.642,13.28
		c69.099,0,93.718-36.889,93.718-71.413c0-32.129-18.588-53.334-60.271-68.753c-31.931-12.108-45.916-19.171-45.916-36.025
		c0-11.797,9.755-25.578,37.247-25.578c16.843,0,33.06,3.462,48.25,10.293l10.634-38.477c-16.936-7.254-36.375-10.929-57.821-10.929
		c-52.457,0-87.7,27.841-87.7,69.284c0,30.831,20.858,53.081,63.766,68.022c26.429,9.464,41.717,18.396,41.717,36.06
		c0,17.777-15.115,28.391-40.436,28.391c-18.657,0-40.132-5.093-58.099-13.709L5.92,241.577z"/>
	<path fill="#FFFFFF" d="M286.471,259.982c-59.453,0-94.945-33.907-94.945-90.7c0-23.884,7.917-47.309,21.723-64.271
		c16.338-20.075,39.944-30.687,68.268-30.687c26.354,0,47.653,9.732,61.597,28.145c11.692,15.438,18.131,37.03,18.131,60.798
		c0,8.652-0.938,16.881-1.814,21.695l-0.383,2.104H248.303c3.402,20.432,25.638,27.799,45.954,27.799
		c17.354,0,31.852-2.149,47.013-6.976l2.743-0.872l8.028,41.362l-1.964,0.79C332.43,256.241,310.436,259.982,286.471,259.982z
		 M281.517,79.45c-58.31,0-84.869,46.564-84.869,89.832c0,53.585,33.58,85.574,89.824,85.574c22.43,0,43.024-3.339,59.729-9.676
		l-6.126-31.562c-14.559,4.341-29.202,6.372-45.818,6.372c-29.524,0-49.699-13.853-51.398-35.287l-0.219-2.764h112.097
		c0.524-3.459,1.386-10.392,1.386-18.673C356.122,122.746,336.523,79.45,281.517,79.45z M311.331,150.248h-69.096l0.273-2.81
		c1.352-13.874,10.415-37.356,35.821-37.356c24.358,0,33.002,20.256,33.002,37.603V150.248z M247.979,145.122h58.145
		c-0.531-8.571-4.226-29.914-27.795-29.914C258.193,115.208,250.016,132.862,247.979,145.122z"/>
	<path fill="#FFFFFF" d="M447.249,256.449h-58.925V137.776c0-25.189-0.697-41.909-1.412-56.869l-0.127-2.687h51.482l1.457,26.225
		c10.392-20.739,29.928-30.121,46.028-30.121c4.943,0,7.667,0,11.794,0.763l2.094,0.388v55.812l-3.019-0.551
		c-3.898-0.709-8.299-1.365-14.055-1.365c-18.121,0-30.947,9.425-34.306,25.218c-0.65,3.23-1.011,7.328-1.011,11.505V256.449z
		 M393.447,251.323h48.68v-85.229c0-4.572,0.385-8.907,1.114-12.543c3.905-18.359,18.605-29.306,39.324-29.306
		c4.712,0,8.556,0.409,11.953,0.936V79.793c-2.599-0.343-4.832-0.343-8.767-0.343c-16.086,0-36.026,10.526-44.309,34.046
		l-0.602,1.712h-5.651l-1.77-31.862h-41.262c0.668,14.353,1.289,30.623,1.289,54.429V251.323z"/>
	<path fill="#FFFFFF" d="M581.75,256.449h-58.925V78.221h58.925V256.449z M527.947,251.323h48.681V83.347h-48.681V251.323z
		 M551.936,62.111c-8.952,0-16.984-3.177-22.614-8.942c-5.288-5.419-8.098-12.726-7.911-20.581
		c-0.185-8.002,2.619-15.447,7.898-20.845c5.619-5.749,13.78-8.917,22.98-8.917c17.99,0,30.835,12.239,31.234,29.762
		C583.524,49.719,570.238,62.111,551.936,62.111z M552.29,7.953c-7.81,0-14.67,2.615-19.317,7.37
		c-4.305,4.407-6.593,10.538-6.438,17.266c-0.154,6.584,2.137,12.582,6.454,17c4.657,4.77,11.386,7.396,18.948,7.396
		c15.583,0,26.465-10.008,26.465-24.335C578.064,17.9,567.571,7.953,552.29,7.953z"/>
	<path fill="#FFFFFF" d="M702.01,260.342c-55.098,0-92.115-36.881-92.115-91.769c0-57.254,37.27-94.249,94.949-94.249
		c53.61,0,91.053,37.446,91.053,91.061C795.897,230.979,748.743,260.342,702.01,260.342z M704.844,79.45
		c-54.567,0-89.828,34.982-89.828,89.123c0,51.823,34.96,86.643,86.993,86.643c61.315,0,88.761-45.117,88.761-89.831
		C790.771,113.984,756.24,79.45,704.844,79.45z M703.424,221.748c-23.057,0-37.958-21.427-37.958-54.584
		c0-26.397,9.97-54.603,37.958-54.603c27.231,0,36.897,29.417,36.897,54.603C740.321,199.813,725.491,221.748,703.424,221.748z
		 M703.424,117.687c-24.208,0-32.836,25.558-32.836,49.477c0,36.468,16.963,49.458,32.836,49.458
		c19.299,0,31.771-19.411,31.771-49.458C735.195,144.339,726.875,117.687,703.424,117.687z"/>
	<path fill="#FFFFFF" d="M886.766,260.342c-23.692,0-63.44-10.13-63.44-77.967V78.221h59.283v95.653
		c0,25.078,8.188,37.792,24.336,37.792c16.134,0,22.856-13.149,24.533-17.18c1.082-2.421,1.572-5.8,1.572-10.692V78.221h59.282
		v120.088c0,23.454,0.757,41.954,1.416,55.453l0.131,2.688h-51.733l-2.149-21.212C932.361,245.159,915.91,260.342,886.766,260.342z
		 M828.451,83.347v99.028c0,46.974,20.711,72.841,58.314,72.841c30.312,0,45.584-16.999,51.996-27.135l0.751-1.192h4.785
		l2.479,24.435h41.725c-0.626-13.288-1.295-30.97-1.295-53.014V83.347h-49.03v100.447c0,5.637-0.638,9.68-1.991,12.723
		c-1.96,4.708-9.938,20.275-29.24,20.275c-13.438,0-29.462-7.448-29.462-42.918V83.347H828.451z"/>
	<path fill="#FFFFFF" d="M1078.976,259.982c-21.804,0-42.634-4.5-57.153-12.345l-1.747-0.941l10.875-43.892l2.977,1.802
		c10.102,6.125,30.197,12.733,45.049,12.733c13.562,0,20.438-4.023,20.438-11.96c0-6.985-3.582-10.664-23.727-17.389
		c-42.65-14.355-51.251-37.569-50.954-54.514c0-34.81,30.02-59.152,73.002-59.152c21.823,0,40.133,5.263,49.988,10.191l1.852,0.925
		l-10.895,42.36l-2.889-1.577c-8.094-4.427-22.449-9.595-36.287-9.595c-5.403,0-17.967,1.13-17.967,11.59
		c0,6.46,5.642,10.201,26.242,17.41c33.367,11.482,48.419,28.699,48.793,55.819C1156.573,237.566,1126.84,259.982,1078.976,259.982z
		 M1026.011,244.043c13.56,6.792,33.163,10.813,52.965,10.813c44.703,0,72.472-20.449,72.472-53.374
		c-0.343-24.929-13.905-40.196-45.347-51.015c-20.939-7.325-29.688-12.035-29.688-22.25c0-10.467,8.632-16.715,23.092-16.715
		c13.254,0,26.93,4.419,35.831,8.73l8.235-32.022c-9.686-4.387-26.225-8.761-45.836-8.761c-39.963,0-67.876,22.235-67.876,54.072
		c-0.385,21.895,16.026,39.033,47.46,49.612c18.821,6.283,27.221,10.989,27.221,22.245c0,7.795-4.438,17.086-25.564,17.086
		c-14.582,0-33.257-5.732-44.701-11.78L1026.011,244.043z"/>
	<path fill="#FFFFFF" d="M1242.937,256.449h-58.93V0h58.93V256.449z M1189.133,251.323h48.677V5.125h-48.677V251.323z"/>
	<path fill="#FFFFFF" d="M1291.165,334.94l-12.551-50.592l2.758-0.43c6.746-1.068,14.922-4.294,22.436-8.87
		c7.898-4.126,16.448-12.423,21.428-20.722c1.591-2.234,2.469-4.585,2.469-6.467c0-2.22-0.719-4.741-2.206-7.701l-64.851-161.938
		h65.508l26.8,88.293c1.971,7.134,4.29,15.537,6.196,22.98c0.857-3.526,1.733-7.275,2.594-10.953
		c1.1-4.684,2.181-9.323,3.206-13.418l21.719-86.902H1450l-41.563,117.405c-23.188,64.248-39.886,95.325-61.602,114.682
		c-19.439,16.873-39.771,22.543-53.398,24.335L1291.165,334.94z M1284.909,288.458l10.119,40.778
		c12.86-2.019,31.014-7.669,48.422-22.774c17.769-15.837,34.047-40.204,60.161-112.558l39.136-110.557h-52.072l-20.754,83.02
		c-1.016,4.072-2.098,8.683-3.188,13.339c-1.546,6.62-3.144,13.46-4.613,18.911l-0.513,1.896h-5.058l-0.459-1.984
		c-2.017-8.72-5.375-20.88-8.074-30.651l-0.402-1.452l-25.256-83.079h-54.14l61.95,154.71c1.762,3.495,2.662,6.767,2.662,9.803
		c0,3.001-1.178,6.299-3.321,9.278c-5.387,9.004-14.531,17.857-23.187,22.369C1299.367,283.749,1291.681,286.954,1284.909,288.458z"
		/>
	<path fill="#FFFFFF" d="M1290.645,562.344c-19.739,0-34.069-14.777-34.069-35.131c0-20.558,14.478-35.478,34.418-35.478
		c20.059,0,34.068,14.588,34.068,35.478C1325.062,547.9,1310.905,562.344,1290.645,562.344z M1290.993,496.861
		c-17.248,0-29.292,12.476-29.292,30.352c0,17.389,12.172,30.005,28.943,30.005c17.247,0,29.292-12.339,29.292-30.005
		C1319.937,509.054,1308.305,496.861,1290.993,496.861z"/>
</g>
</svg>
