<?xml version="1.0" encoding="utf-8"?>
<!-- Generator: Adobe Illustrator 16.0.0, SVG Export Plug-In . SVG Version: 6.00 Build 0)  -->
<!DOCTYPE svg PUBLIC "-//W3C//DTD SVG 1.1//EN" "http://www.w3.org/Graphics/SVG/1.1/DTD/svg11.dtd">
<svg version="1.1" id="Layer_1" xmlns="http://www.w3.org/2000/svg" xmlns:xlink="http://www.w3.org/1999/xlink" x="0px" y="0px"
	 width="1450px" height="563.625px" viewBox="0 0 1450 563.625" enable-background="new 0 0 1450 563.625" xml:space="preserve">
<g>
	<path fill="#FFFFFF" d="M141.45,551.671c-9.532,4.234-27.545,7.774-48.027,7.774c-55.802,0-91.472-33.905-91.472-88.3
		c0-50.51,34.613-91.826,98.887-91.826c14.128,0,29.663,2.47,40.966,6.718l-8.477,39.903c-6.354-2.832-15.891-5.305-30.018-5.305
		c-28.251,0-46.62,20.133-46.267,48.396c0,31.772,21.194,48.377,47.329,48.377c12.711,0,22.603-2.112,30.725-5.304L141.45,551.671z"
		/>
	<path fill="#FFFFFF" d="M171.109,440.073c0-25.435-0.702-42.036-1.41-56.867h46.268l1.762,31.792h1.412
		c8.829-25.071,30.022-35.678,46.621-35.678c4.943,0,7.416,0,11.301,0.708v50.495c-3.886-0.696-8.475-1.404-14.48-1.404
		c-19.777,0-33.197,10.595-36.73,27.195c-0.708,3.532-1.062,7.774-1.062,12.003v87.589h-53.681V440.073z"/>
	<path fill="#FFFFFF" d="M343.804,486.694c1.764,22.242,23.66,32.834,48.738,32.834c18.364,0,33.197-2.467,47.679-7.062
		l7.062,36.374c-17.661,7.066-39.203,10.606-62.513,10.606c-58.625,0-92.176-33.905-92.176-87.943
		c0-43.8,27.193-92.183,87.232-92.183c55.799,0,76.993,43.44,76.993,86.173c0,9.179-1.062,17.312-1.77,21.201H343.804z
		 M407.018,449.959c0-13.078-5.65-34.962-30.371-34.962c-22.603,0-31.787,20.481-33.197,34.962H407.018z"/>
	<path fill="#FFFFFF" d="M587.133,555.906l-3.179-17.312h-1.062c-11.301,13.775-28.96,21.201-49.44,21.201
		c-34.966,0-55.805-25.424-55.805-52.979c0-44.856,40.261-66.394,101.358-66.046v-2.472c0-9.179-4.943-22.243-31.427-22.243
		c-17.659,0-36.38,5.998-47.683,13.064l-9.885-34.61c12.009-6.718,35.668-15.188,67.101-15.188c57.568,0,75.93,33.905,75.93,74.522
		v60.039c0,16.602,0.708,32.486,2.472,42.024H587.133z M580.775,474.324c-28.254-0.349-50.148,6.36-50.148,27.198
		c0,13.775,9.179,20.479,21.187,20.479c13.42,0,24.373-8.827,27.9-19.781c0.708-2.818,1.062-5.999,1.062-9.179V474.324z"/>
	<path fill="#FFFFFF" d="M732.632,333.767v49.438h38.496v39.555h-38.496v62.518c0,20.829,4.944,30.367,21.189,30.367
		c6.712,0,12.008-0.707,15.891-1.407l0.351,40.604c-7.057,2.829-19.772,4.604-34.958,4.604c-17.303,0-31.784-6.01-40.265-14.84
		c-9.887-10.235-14.83-26.836-14.83-51.218V422.76h-22.957v-39.555h22.957v-37.431L732.632,333.767z"/>
	<path fill="#FFFFFF" d="M857.644,335.171c0,14.84-11.3,26.848-28.961,26.848c-16.938,0-28.246-12.008-27.893-26.848
		c-0.354-15.528,10.955-27.19,28.253-27.19C846.344,307.981,857.298,319.643,857.644,335.171z M802.206,555.906v-172.7h53.676v172.7
		H802.206z"/>
	<path fill="#FFFFFF" d="M938.869,383.206l23.308,80.169c4.233,14.489,7.417,28.261,9.884,42.036h1.07
		c2.818-14.135,5.65-27.21,9.524-42.036l22.257-80.169h56.508l-64.284,172.7H943.46l-62.868-172.7H938.869z"/>
	<path fill="#FFFFFF" d="M1122.147,486.694c1.77,22.242,23.661,32.834,48.738,32.834c18.363,0,33.191-2.467,47.675-7.062
		l7.063,36.374c-17.658,7.066-39.207,10.606-62.5,10.606c-58.635,0-92.186-33.905-92.186-87.943c0-43.8,27.195-92.183,87.24-92.183
		c55.794,0,76.983,43.44,76.983,86.173c0,9.179-1.057,17.312-1.762,21.201H1122.147z M1185.36,449.959
		c0-13.078-5.649-34.962-30.359-34.962c-22.604,0-31.798,20.481-33.214,34.962H1185.36z"/>
</g>
<g>
	<path fill="#FFFFFF" d="M71.877,261.949c-29.017,0-56.27-7.756-69.309-14.959L0,245.571l12.805-52.056l4.312,2.208
		c17.621,9.02,39.28,14.409,57.942,14.409c21.579,0,33.955-7.999,33.955-21.938c0-12.392-9.428-19.949-37.366-29.956
		c-45.032-15.684-67.88-40.545-67.88-73.892c0-45.171,37.733-75.519,93.891-75.519c23.146,0,44.11,4.156,62.316,12.345l2.999,1.348
		l-14.102,51.023l-4.133-1.985C129.662,64.31,113.466,60.632,96.6,60.632c-18.696,0-30.774,7.509-30.774,19.132
		c0,12.113,10.405,18.104,41.67,29.959c43.844,16.219,64.277,39.922,64.277,74.583c0,21.702-8.836,41.158-24.881,54.789
		C129.295,254.045,103.357,261.949,71.877,261.949z M8.869,241.619c13.019,6.33,37.173,12.662,63.009,12.662
		c68,0,92.229-36.146,92.229-69.975c0-31.446-18.289-52.233-59.3-67.402c-28.934-10.972-46.649-18.628-46.649-37.14
		c0-12.362,10.068-26.799,38.442-26.799c16.486,0,32.375,3.29,47.302,9.78l9.917-35.886c-16.505-6.877-35.38-10.365-56.159-10.365
		c-51.573,0-86.223,27.269-86.223,67.853c0,30.148,20.531,51.954,62.765,66.662c26.917,9.639,42.48,18.808,42.48,37.186
		c0,18.536-15.561,29.606-41.623,29.606c-18.311,0-39.303-4.868-57.1-13.138L8.869,241.619z"/>
</g>
<g>
	<path fill="#FFFFFF" d="M287.297,261.949c-60.117,0-96.009-34.309-96.009-91.773c0-24.119,8.005-47.788,21.962-64.938
		c16.552-20.335,40.447-31.084,69.104-31.084c26.709,0,48.313,9.886,62.478,28.588c11.832,15.624,18.347,37.439,18.347,61.431
		c0,8.717-0.946,17.015-1.831,21.876l-0.575,3.145H250.767c4.104,18.476,25.083,25.182,44.298,25.182
		c17.178,0,31.525-2.127,46.519-6.896l4.105-1.307l8.486,43.715l-2.941,1.177C333.479,258.184,311.371,261.949,287.297,261.949z
		 M282.355,81.825c-57.301,0-83.399,45.797-83.399,88.351c0,52.665,33.024,84.102,88.341,84.102c21.777,0,41.794-3.169,58.136-9.191
		l-5.64-29.051c-14.204,4.094-28.537,6.01-44.728,6.01c-30.172,0-50.804-14.279-52.555-36.379l-0.33-4.139h112.125
		c0.514-3.659,1.208-9.956,1.208-17.353C355.513,124.363,336.294,81.825,282.355,81.825z"/>
	<path fill="#FFFFFF" d="M313.38,152.463h-71.626l0.409-4.206c1.864-19.125,14.029-38.425,37.012-38.425
		c25.248,0,34.205,20.899,34.205,38.794V152.463z M250.427,144.792h55.101c-0.82-8.911-5.086-27.29-26.353-27.29
		C260.734,117.502,252.779,133.106,250.427,144.792z"/>
</g>
<g>
	<path fill="#FFFFFF" d="M448.991,258.419h-61.349V138.742c0-25.106-0.694-41.769-1.406-56.681l-0.191-4.016h53.916l1.271,22.907
		c11.005-18.417,29.484-26.798,44.895-26.798c5.008,0,7.768,0,11.999,0.784l3.137,0.578v58.283l-4.52-0.824
		c-3.83-0.698-8.152-1.342-13.795-1.342c-17.434,0-29.762,9.027-32.98,24.151c-0.625,3.126-0.977,7.124-0.977,11.21V258.419z
		 M395.31,250.752h46.014v-83.757c0-4.643,0.394-9.055,1.138-12.764c3.975-18.685,19.486-30.269,40.487-30.269
		c4.115,0,7.572,0.306,10.647,0.732V82.029c-2.1-0.204-4.178-0.204-7.468-0.204c-15.599,0-34.947,10.239-43.004,33.118l-0.901,2.56
		h-7.752l-1.765-31.79h-38.62c0.644,14.01,1.225,29.983,1.225,53.029V250.752z"/>
</g>
<g>
	<path fill="#FFFFFF" d="M552.162,64.524c-9.279,0-17.617-3.307-23.477-9.308c-5.518-5.653-8.451-13.271-8.255-21.457
		c-0.194-8.27,2.734-16.025,8.244-21.661c5.848-5.984,14.316-9.281,23.841-9.281c18.688,0,32.026,12.726,32.44,30.946
		C584.958,51.624,571.165,64.524,552.162,64.524z M552.516,10.49c-7.553,0-13.901,2.409-18.358,6.97
		c-4.113,4.206-6.209,9.844-6.063,16.304c-0.145,6.283,2.014,11.936,6.078,16.094c4.405,4.513,10.793,6.995,17.991,6.995
		c14.794,0,25.128-9.456,25.128-23.001C576.972,19.911,567.015,10.49,552.516,10.49z"/>
	<path fill="#FFFFFF" d="M583.188,258.423h-61.349V78.042h61.349V258.423z M529.507,250.752h46.014V85.709h-46.014V250.752z"/>
</g>
<g>
	<path fill="#FFFFFF" d="M701.896,262.305c-55.735,0-93.184-37.31-93.184-92.837c0-57.9,37.688-95.311,96.013-95.311
		c54.245,0,92.125,37.883,92.125,92.13C796.851,232.618,749.157,262.305,701.896,262.305z M704.725,81.825
		c-53.667,0-88.345,34.399-88.345,87.643c0,50.942,34.367,85.169,85.516,85.169c60.3,0,87.286-44.374,87.286-88.35
		C789.182,115.767,755.243,81.825,704.725,81.825z"/>
	<path fill="#FFFFFF" d="M703.311,223.802c-23.785,0-39.153-21.879-39.153-55.74c0-41.108,20.225-55.754,39.153-55.754
		c28.109,0,38.092,30.034,38.092,55.754C741.402,201.402,726.093,223.802,703.311,223.802z M703.311,119.975
		c-23.214,0-31.485,24.838-31.485,48.086c0,23.238,8.271,48.069,31.485,48.069c18.479,0,30.42-18.868,30.42-48.069
		C733.73,145.879,725.761,119.975,703.311,119.975z"/>
</g>
<g>
	<path fill="#FFFFFF" d="M886.235,262.305c-41.039,0-64.573-28.817-64.573-79.066V78.045h61.705v96.712
		c0,9.009,0,36.427,22.999,36.427c15.307,0,21.704-12.516,23.302-16.353c0.999-2.247,1.473-5.546,1.473-10.178V78.045h61.698
		v121.091c0,23.373,0.754,41.815,1.41,55.264l0.196,4.019h-54.112l-1.945-19.222C929.914,249.164,913.56,262.305,886.235,262.305z
		 M829.332,85.713v97.525c0,46.043,20.209,71.398,56.903,71.398c29.626,0,44.54-16.588,50.793-26.478l1.127-1.783h6.636
		l2.472,24.376h39.14c-0.606-13.113-1.235-30.325-1.235-51.616V85.713h-46.363v98.941c0,5.812-0.668,10.01-2.099,13.214
		c-2.014,4.854-10.291,20.988-30.339,20.988c-13.99,0-30.669-7.654-30.669-44.099V85.713H829.332z"/>
</g>
<g>
	<path fill="#FFFFFF" d="M1078.01,261.949c-21.957,0-42.962-4.547-57.629-12.468l-2.611-1.413l11.501-46.441l4.452,2.702
		c9.94,6.022,29.69,12.518,44.287,12.518c19.116,0,19.116-8.021,19.116-10.654c0-5.794-2.246-9.278-22.801-16.138
		c-43.293-14.571-52.013-38.292-51.71-55.624c0-35.46,30.473-60.275,74.111-60.275c21.996,0,40.481,5.321,50.45,10.301l2.767,1.385
		l-11.532,44.859l-4.324-2.366c-7.944-4.343-22.033-9.415-35.593-9.415c-6.22,0-16.647,1.335-16.647,10.285
		c0,5.051,3.656,8.583,25.324,16.167c33.877,11.654,49.161,29.197,49.535,56.88C1156.712,239.095,1126.557,261.949,1078.01,261.949z
		 M1026.65,244.075c13.322,6.42,32.234,10.203,51.359,10.203c44.478,0,71.033-19.427,71.033-51.974
		c-0.331-24.225-13.611-39.102-44.387-49.694c-21.498-7.522-30.479-12.436-30.479-23.407c0-8.679,6.39-17.952,24.316-17.952
		c12.755,0,25.879,4.026,34.896,8.172l7.564-29.402c-9.643-4.17-25.505-8.196-44.228-8.196c-39.124,0-66.448,21.657-66.448,52.671
		c-0.365,21.253,15.701,37.93,46.485,48.288c19.377,6.47,28.034,11.386,28.034,23.408c0,6.842-3.48,18.32-26.788,18.32
		c-14.146,0-32.087-5.324-43.743-11.154L1026.65,244.075z"/>
</g>
<g>
	<path fill="#FFFFFF" d="M1242.877,258.419h-61.348V0h61.348V258.419z M1189.192,250.752h46.012V7.668h-46.012V250.752z"/>
</g>
<g>
	<path fill="#FFFFFF" d="M1288.753,336.876l-13.13-52.939l4.13-0.648c6.57-1.035,14.559-4.199,21.914-8.677
		c7.768-4.062,16.094-12.146,20.948-20.242c1.492-2.105,2.288-4.173,2.288-5.793c0-1.984-0.696-4.378-2.07-7.111l-65.445-163.422
		h68.192l27.021,89.034c1.544,5.575,3.297,11.928,4.896,17.998c0.471-1.977,0.938-3.974,1.402-5.953
		c1.09-4.68,2.175-9.312,3.197-13.404l21.914-87.674H1450l-42.067,118.843c-23.225,64.33-39.977,95.479-61.82,114.95
		c-19.651,17.055-40.187,22.783-53.964,24.594L1288.753,336.876z M1285.028,290.026l9.502,38.292
		c12.58-2.141,29.895-7.811,46.519-22.243c17.567-15.655,33.698-39.832,59.663-111.77l38.438-108.596h-49.152l-20.462,81.867
		c-1.017,4.057-2.087,8.65-3.172,13.292c-1.549,6.611-3.146,13.451-4.619,18.906l-0.762,2.835h-7.043l-0.686-2.969
		c-2.005-8.672-5.353-20.787-8.043-30.525l-0.402-1.447l-24.913-81.959h-51.184l61.107,152.611
		c1.804,3.574,2.747,7.022,2.747,10.256c0,3.261-1.261,6.811-3.549,10.001c-5.432,9.083-14.758,18.104-23.585,22.707
		C1298.868,285.288,1291.599,288.395,1285.028,290.026z"/>
</g>
<g>
	<path fill="#FFFFFF" d="M1289.197,563.625c-20.433,0-35.271-15.278-35.271-36.329c0-21.249,14.984-36.675,35.625-36.675
		c20.764,0,35.262,15.081,35.262,36.675C1324.813,548.687,1310.169,563.625,1289.197,563.625z M1289.552,498.288
		c-16.457,0-27.953,11.929-27.953,29.009c0,16.61,11.609,28.66,27.599,28.66c16.454,0,27.952-11.784,27.952-28.66
		C1317.149,509.945,1306.054,498.288,1289.552,498.288z"/>
</g>
</svg>
